<svg height="511pt" viewBox="-52 0 511 511.99963" width="511pt" xmlns="http://www.w3.org/2000/svg"><path d="m370.019531 487.730469-17.226562-131.527344v112.042969c0 7.003906-5.679688 12.683594-12.6875 12.683594h-9.171875c-7.007813 0-12.6875-5.679688-12.6875-12.683594v-212.828125c-37.652344-4.167969-75.585938-6.292969-113.550782-6.292969-45.265624 0-90.492187 3.007812-135.242187 8.917969l-30.085937 229.6875c-1.722657 12.847656 8.265624 24.269531 21.226562 24.269531h288.195312c12.964844 0 22.957032-11.421875 21.230469-24.269531zm0 0" fill="#6c7ed6"/><path d="m69.8125 487.730469 31.519531-233.390625c-10.648437 1.070312-21.277343 2.300781-31.878906 3.703125l-30.085937 229.6875c-1.722657 12.847656 8.265624 24.269531 21.226562 24.269531h30.449219c-12.960938 0-22.953125-11.421875-21.230469-24.269531zm0 0" fill="#4f67d2"/><path d="m318.246094 211.207031c-37.550782-5.1875-75.53125-7.816406-113.550782-7.816406-43.382812 0-86.71875 3.421875-129.414062 10.160156l-6.097656 46.558594c44.835937-5.9375 90.152344-8.953125 135.511718-8.953125 37.964844 0 75.898438 2.121094 113.550782 6.292969zm0 0" fill="#fee55a"/><path d="m107.4375 209.117188c-10.753906 1.269531-21.476562 2.746093-32.15625 4.433593l-6.097656 46.558594c10.597656-1.402344 21.222656-2.636719 31.871094-3.714844zm0 0" fill="#ffd301"/><path d="m318.246094 176.027344c-37.574219-5.15625-75.546875-7.777344-113.550782-7.777344-64.179687 0-128.273437 7.414062-190.503906 22.03125-9.464844 2.222656-15.398437 11.984375-13.253906 21.796875s11.554688 15.96875 21.015625 13.746094c59.6875-14.019531 121.171875-21.128907 182.738281-21.128907 38.019532 0 76.003906 2.71875 113.554688 8.09375zm0 0" fill="#6c7ed6"/><path d="m395.195312 190.28125c-14.046874-3.296875-28.191406-6.210938-42.402343-8.773438v37c11.605469 2.183594 23.15625 4.617188 34.640625 7.316407 1.304687.308593 2.609375.453125 3.894531.453125 8.027344 0 15.273437-5.738282 17.121094-14.199219 2.144531-9.8125-3.789063-19.570313-13.253907-21.796875zm0 0" fill="#6c7ed6"/><path d="m21.957031 202.734375c-6.703125 1.578125-13.371093-1.066406-17.457031-6.226563-3.3125 4.199219-4.808594 9.871094-3.5625 15.570313 2.144531 9.8125 11.558594 15.96875 21.019531 13.746094 59.6875-14.019531 121.167969-21.128907 182.738281-21.128907 38.015626 0 76 2.71875 113.550782 8.09375v-23.089843c-37.550782-5.375-75.535156-8.09375-113.550782-8.09375-61.570312 0-123.050781 7.109375-182.738281 21.128906zm0 0" fill="#4f67d2"/><path d="m391.328125 203.1875c-1.285156 0-2.589844-.144531-3.894531-.453125-11.484375-2.695313-23.035156-5.132813-34.640625-7.316406v23.089843c11.605469 2.183594 23.15625 4.621094 34.640625 7.316407 1.304687.308593 2.609375.457031 3.894531.457031 8.027344 0 15.273437-5.742188 17.121094-14.203125 1.246093-5.699219-.246094-11.367187-3.558594-15.566406-3.289063 4.152343-8.25 6.675781-13.5625 6.675781zm0 0" fill="#4f67d2"/><g fill="#fee55a"><path d="m288.6875 63.917969h-9.394531c-4.203125 0-7.609375-3.410157-7.609375-7.613281 0-4.203126 3.40625-7.609376 7.609375-7.609376h9.394531c4.203125 0 7.609375 3.40625 7.609375 7.609376 0 4.203124-3.40625 7.613281-7.609375 7.613281zm0 0"/><path d="m391.746094 63.917969h-9.394532c-4.203124 0-7.609374-3.410157-7.609374-7.613281 0-4.203126 3.40625-7.609376 7.609374-7.609376h9.394532c4.203125 0 7.609375 3.40625 7.609375 7.609376 0 4.203124-3.40625 7.613281-7.609375 7.613281zm0 0"/><path d="m355.128906 22.339844c-3.640625-2.101563-4.886718-6.757813-2.785156-10.398438l4.695312-8.132812c2.105469-3.640625 6.757813-4.890625 10.398438-2.785156 3.640625 2.101562 4.886719 6.753906 2.785156 10.394531l-4.695312 8.136719c-2.101563 3.640624-6.757813 4.886718-10.398438 2.785156zm0 0"/><path d="m305.511719 19.554688-4.695313-8.136719c-2.101562-3.640625-.855468-8.296875 2.785156-10.394531 3.640626-2.105469 8.292969-.855469 10.394532 2.785156l4.699218 8.132812c2.101563 3.640625.855469 8.296875-2.785156 10.398438-3.640625 2.101562-8.296875.855468-10.398437-2.785156zm0 0"/></g><path d="m316.976562 120.453125v347.792969c0 7.003906 6.144532 12.683594 13.726563 12.683594h9.925781c7.582032 0 13.726563-5.679688 13.726563-12.683594v-347.792969zm0 0" fill="#b1dbfc"/><path d="m342.59375 468.246094v-347.792969h-25.617188v347.792969c0 7.003906 6.144532 12.683594 13.726563 12.683594h9.925781c2.921875 0 5.621094-.847657 7.847656-2.285157-3.554687-2.292969-5.882812-6.089843-5.882812-10.398437zm0 0" fill="#8cc9f9"/><path d="m340.628906 49.082031h-9.925781c-7.582031 0-13.726563 5.679688-13.726563 12.683594v59.703125h37.378907v-59.703125c0-7.003906-6.144531-12.683594-13.726563-12.683594zm0 0" fill="#6c7ed6"/><path d="m348.476562 51.367188c-2.226562-1.4375-4.925781-2.285157-7.847656-2.285157h-9.925781c-7.582031 0-13.726563 5.679688-13.726563 12.6875v59.699219h25.617188v-59.699219c0-4.308593 2.328125-8.109375 5.882812-10.402343zm0 0" fill="#4f67d2"/></svg>