<svg id="icons" enable-background="new 0 0 64 64" height="512" viewBox="0 0 64 64" width="512" xmlns="http://www.w3.org/2000/svg"><path d="m31.99 39.01v.01l-9.99 9.99v.01l-11.01-7.34-9.99-6.66v-.01l10-10 5.24 3.5z" fill="#ffce54"/><path d="m52.99 41.69v7.31l-21 14v-23.98l.01-.01 10 10v.01z" fill="#edab37"/><path d="m31.99 39.02v23.98l-21-14v-7.32l11.01 7.34v-.01z" fill="#f6bb42"/><path d="m32 11.01 20.99 14-5.271 3.51c.021-.34-.17-.68-.56-.939-.771-.521-2-.521-2.76 0 .76-.521.76-1.34 0-1.84-.771-.51-2-.51-2.761 0 .761-.51.761-1.34 0-1.84-.76-.5-2-.5-2.76 0 .76-.5.76-1.33 0-1.841-.76-.51-1.99-.51-2.75 0 .76-.51.76-1.329 0-1.84-.76-.51-1.979-.51-2.75-.01.75-.5.75-1.32-.01-1.82-.76-.51-1.99-.51-2.75 0-.76.511-.76 1.32-.01 1.83-.38-.26-.88-.38-1.37-.38-.5 0-1 .12-1.38.38-.761.511-.771 1.33 0 1.84-.38-.26-.88-.38-1.38-.38s-1 .12-1.381.38c-.76.511-.76 1.33 0 1.841-.38-.25-.88-.381-1.38-.381-.489 0-.989.131-1.37.381-.76.5-.76 1.33-.01 1.84-.38-.26-.88-.38-1.38-.38-.49 0-.99.12-1.37.38-.76.5-.76 1.319 0 1.84-.38-.26-.88-.38-1.38-.38s-1 .12-1.38.38c-.38.25-.57.58-.57.91l-.02.02-5.237-3.501 20.99-14z" fill="#f6bb42"/><path d="m33.38 20.21c.771-.5 1.99-.5 2.75.01.76.511.76 1.33 0 1.84.76-.51 1.99-.51 2.75 0 .76.511.76 1.341 0 1.841.76-.5 2-.5 2.76 0 .761.5.761 1.33 0 1.84.761-.51 1.99-.51 2.761 0 .76.5.76 1.319 0 1.84.76-.521 1.989-.521 2.76 0 .39.26.58.6.56.939l-15.721 10.49h-.01l-15.75-10.5.02-.02c0-.33.19-.66.57-.91.38-.26.88-.38 1.38-.38s1 .12 1.38.38c-.76-.521-.76-1.34 0-1.84.38-.26.88-.38 1.37-.38.5 0 1 .12 1.38.38-.75-.51-.75-1.34.01-1.84.381-.25.881-.381 1.37-.381.5 0 1 .131 1.38.381-.76-.511-.76-1.33 0-1.841.381-.26.881-.38 1.381-.38s1 .12 1.38.38c-.771-.51-.761-1.329 0-1.84.38-.26.88-.38 1.38-.38.49 0 .99.12 1.37.38-.75-.51-.75-1.319.01-1.83.76-.51 1.99-.51 2.75 0 .759.501.759 1.321.009 1.821z" fill="#e6e9ed"/><g fill="#ffce54"><path d="m53 25.01 10 10v.01l-10.01 6.67-10.99 7.33v-.01l-10-10 15.72-10.49 5.27-3.51z"/><path d="m63 15-10 10.01h-.01l-20.99-14 10-10.01 20.99 14z"/><path d="m21.99 1 10 10.01-20.99 14-10-10v-.01z"/></g><path d="m31.99 11.01-.01.007v6.992c.503-.002 1.006.123 1.39.381.76.5.76 1.32.01 1.82.771-.5 1.99-.5 2.75.01.76.511.76 1.33 0 1.84.76-.51 1.99-.51 2.75 0 .76.511.76 1.341 0 1.841.76-.5 2-.5 2.76 0 .761.5.761 1.33 0 1.84.761-.51 1.99-.51 2.761 0 .76.5.76 1.319 0 1.84.76-.521 1.989-.521 2.76 0 .39.26.58.6.56.939l5.271-3.51-20.992-14z" fill="#edab37"/></svg>