<svg height="472pt" viewBox="-20 0 472 472" width="472pt" xmlns="http://www.w3.org/2000/svg"><path d="m369.847656 94.402344c7.816406 4.121094 10.808594 13.800781 6.6875 21.617187l-59.734375 113.207031-28.300781-14.933593 59.730469-113.207031c4.125-7.816407 13.804687-10.808594 21.617187-6.683594zm0 0" fill="#0093b9"/><path d="m93.601562 233.535156-4-81.128906c-.660156-13.804688 8.851563-26.027344 22.398438-28.773438 13.527344-2.753906 27.042969 4.765626 31.839844 17.710938l28.160156 76.191406zm0 0" fill="#d69f44"/><path d="m137.601562 248-3.953124-81.128906c-.675782-13.796875 8.8125-26.023438 22.34375-28.800782 13.527343-2.746093 27.035156 4.769532 31.832031 17.714844l28.175781 76.214844zm0 0" fill="#ecaf4a"/><path d="m424 472h-416l-8-32h432zm0 0" fill="#aab9c1"/><path d="m260.335938 440h-88.671876c-47.949218 0-88.542968-35.382812-95.097656-82.878906l-20.566406-149.121094h320l-20.566406 149.121094c-6.554688 47.496094-47.148438 82.878906-95.097656 82.878906zm0 0" fill="#ccdce5"/><path d="m260.335938 416h-12.335938v-16h12.335938c27.933593-.101562 51.558593-20.695312 55.472656-48.351562l2.3125-16.746094 15.847656 2.195312-2.304688 16.734375c-5.035156 35.5625-35.410156 62.039063-71.328124 62.167969zm0 0" fill="#d7e5ea"/><path d="m320.328125 318.902344 2.207031-16 15.851563 2.1875-2.210938 16zm0 0" fill="#d7e5ea"/><path d="m272 184h-16v-32c-.035156-30.914062-25.085938-55.964844-56-56h-44c-15.464844 0-28-12.535156-28-28s12.535156-28 28-28h112c6.628906 0 12-5.371094 12-12s-5.371094-12-12-12h-76v-16h76c15.464844 0 28 12.535156 28 28s-12.535156 28-28 28h-112c-6.628906 0-12 5.371094-12 12s5.371094 12 12 12h44c39.746094.042969 71.957031 32.253906 72 72zm0 0" fill="#aab9c1"/><path d="m160 0h16v16h-16zm0 0" fill="#aab9c1"/><path d="m366.070312 280 4.410157-32h-308.960938l4.410157 32zm0 0" fill="#0093b9"/></svg>